{
	"asset":{
		"generator":"Khronos glTF Blender I/O v4.2.70",
		"version":"2.0"
	},
	"scene":0,
	"scenes":[
		{
			"name":"Scene",
			"nodes":[
				0,
				1,
				2,
				3,
				4,
				5
			]
		}
	],
	"nodes":[
		{
			"mesh":0,
			"name":"banc",
			"rotation":[
				0,
				0.7071068286895752,
				0,
				0.7071068286895752
			],
			"translation":[
				6.139290809631348,
				-1.5309213399887085,
				0.0001446148380637169
			]
		},
		{
			"mesh":1,
			"name":"Ground",
			"scale":[
				4.236026287078857,
				4.236026287078857,
				4.236026287078857
			],
			"translation":[
				5.677637577056885,
				-1.9727323055267334,
				-0.0492091178894043
			]
		},
		{
			"mesh":2,
			"name":"VideoPlane",
			"rotation":[
				-0.5,
				0.5,
				0.5,
				0.5
			],
			"scale":[
				1.4196819067001343,
				1.4196819067001343,
				1.4196819067001343
			],
			"translation":[
				-5.656755447387695,
				-0.02323947846889496,
				0
			]
		},
		{
			"mesh":3,
			"name":"Wall",
			"rotation":[
				0,
				-1,
				0,
				7.549790126404332e-08
			],
			"scale":[
				1.1896308660507202,
				1.9008594751358032,
				4.32002067565918
			],
			"translation":[
				2.0051496028900146,
				-0.05482363700866699,
				0
			]
		},
		{
			"name":"Reflector",
			"rotation":[
				0,
				-1,
				0,
				7.549790126404332e-08
			],
			"scale":[
				1.1896308660507202,
				1.9008594751358032,
				4.32002067565918
			],
			"translation":[
				2.0051496028900146,
				-0.05482363700866699,
				0
			]
		},
		{
			"mesh":4,
			"name":"Cables",
			"translation":[
				2.6461033821105957,
				0.08047795295715332,
				0
			]
		}
	],
	"materials":[
		{
			"doubleSided":true,
			"name":"Wood",
			"normalTexture":{
				"index":0,
				"texCoord":1
			},
			"pbrMetallicRoughness":{
				"baseColorTexture":{
					"index":1,
					"texCoord":1
				},
				"metallicFactor":0,
				"metallicRoughnessTexture":{
					"index":2,
					"texCoord":1
				}
			}
		},
		{
			"doubleSided":true,
			"name":"Old Metal",
			"normalTexture":{
				"index":3,
				"texCoord":1
			},
			"pbrMetallicRoughness":{
				"baseColorTexture":{
					"index":4,
					"texCoord":1
				},
				"metallicRoughnessTexture":{
					"index":5,
					"texCoord":1
				}
			}
		},
		{
			"doubleSided":true,
			"name":"Ground",
			"normalTexture":{
				"index":6
			},
			"pbrMetallicRoughness":{
				"baseColorTexture":{
					"index":7
				},
				"metallicFactor":0,
				"metallicRoughnessTexture":{
					"index":8
				}
			}
		},
		{
			"doubleSided":true,
			"emissiveFactor":[
				1,
				1,
				1
			],
			"name":"Material.002",
			"pbrMetallicRoughness":{
				"baseColorFactor":[
					0,
					0,
					0,
					1
				]
			}
		},
		{
			"doubleSided":true,
			"emissiveFactor":[
				1,
				1,
				1
			],
			"name":"Material",
			"pbrMetallicRoughness":{
				"baseColorFactor":[
					0.800000011920929,
					0.800000011920929,
					0.800000011920929,
					1
				],
				"metallicFactor":0,
				"roughnessFactor":0.5
			}
		}
	],
	"meshes":[
		{
			"name":"banc",
			"primitives":[
				{
					"attributes":{
						"POSITION":0,
						"NORMAL":1,
						"TEXCOORD_0":2,
						"TEXCOORD_1":3
					},
					"indices":4,
					"material":0
				},
				{
					"attributes":{
						"POSITION":5,
						"NORMAL":6,
						"TEXCOORD_0":7,
						"TEXCOORD_1":8
					},
					"indices":9,
					"material":1
				}
			]
		},
		{
			"name":"Ground",
			"primitives":[
				{
					"attributes":{
						"POSITION":10,
						"NORMAL":11,
						"TEXCOORD_0":12,
						"COLOR_0":13,
						"COLOR_1":14
					},
					"indices":15,
					"material":2
				}
			]
		},
		{
			"name":"Empty.002",
			"primitives":[
				{
					"attributes":{
						"POSITION":16,
						"NORMAL":17,
						"TEXCOORD_0":18
					},
					"indices":19,
					"material":3
				}
			]
		},
		{
			"name":"Wall",
			"primitives":[
				{
					"attributes":{
						"POSITION":20,
						"NORMAL":21,
						"TEXCOORD_0":22,
						"TEXCOORD_1":23
					},
					"indices":24
				}
			]
		},
		{
			"name":"cables",
			"primitives":[
				{
					"attributes":{
						"POSITION":25,
						"NORMAL":26,
						"TEXCOORD_0":27,
						"TEXCOORD_1":28
					},
					"indices":29,
					"material":4
				}
			]
		}
	],
	"textures":[
		{
			"sampler":0,
			"source":0
		},
		{
			"sampler":0,
			"source":1
		},
		{
			"sampler":0,
			"source":2
		},
		{
			"sampler":0,
			"source":3
		},
		{
			"sampler":0,
			"source":4
		},
		{
			"sampler":0,
			"source":5
		},
		{
			"sampler":0,
			"source":6
		},
		{
			"sampler":0,
			"source":7
		},
		{
			"sampler":0,
			"source":8
		}
	],
	"images":[
		{
			"mimeType":"image/jpeg",
			"name":"Wood_Normal",
			"uri":"Wood_Normal.jpg"
		},
		{
			"mimeType":"image/jpeg",
			"name":"Wood_BaseColor",
			"uri":"Wood_BaseColor.jpg"
		},
		{
			"mimeType":"image/png",
			"name":"Wood_Roughness",
			"uri":"Wood_Roughness.png"
		},
		{
			"mimeType":"image/jpeg",
			"name":"Used Metal_normal",
			"uri":"Used%20Metal_normal.jpg"
		},
		{
			"mimeType":"image/jpeg",
			"name":"Used Metal_basecolor",
			"uri":"Used%20Metal_basecolor.jpg"
		},
		{
			"mimeType":"image/png",
			"name":"Used Metal_metallic.jpg-Used Metal_roughness.jpg",
			"uri":"Used%20Metal_metallic_jpg-Used%20Metal_roughness_jpg.png"
		},
		{
			"mimeType":"image/png",
			"name":"ground_normal",
			"uri":"ground_normal.png"
		},
		{
			"mimeType":"image/png",
			"name":"ground_basecolor",
			"uri":"ground_basecolor.png"
		},
		{
			"mimeType":"image/png",
			"name":"ground_roughness",
			"uri":"ground_roughness.png"
		}
	],
	"accessors":[
		{
			"bufferView":0,
			"componentType":5126,
			"count":3308,
			"max":[
				2.116619110107422,
				0.060907453298568726,
				0.18903516232967377
			],
			"min":[
				-2.1628267765045166,
				0.020907431840896606,
				-0.19026468694210052
			],
			"type":"VEC3"
		},
		{
			"bufferView":1,
			"componentType":5126,
			"count":3308,
			"type":"VEC3"
		},
		{
			"bufferView":2,
			"componentType":5126,
			"count":3308,
			"type":"VEC2"
		},
		{
			"bufferView":3,
			"componentType":5126,
			"count":3308,
			"type":"VEC2"
		},
		{
			"bufferView":4,
			"componentType":5123,
			"count":11034,
			"type":"SCALAR"
		},
		{
			"bufferView":5,
			"componentType":5126,
			"count":2819,
			"max":[
				2.0933122634887695,
				0.059279680252075195,
				0.23438526690006256
			],
			"min":[
				-2.1496775150299072,
				-0.4190925657749176,
				-0.23561473190784454
			],
			"type":"VEC3"
		},
		{
			"bufferView":6,
			"componentType":5126,
			"count":2819,
			"type":"VEC3"
		},
		{
			"bufferView":7,
			"componentType":5126,
			"count":2819,
			"type":"VEC2"
		},
		{
			"bufferView":8,
			"componentType":5126,
			"count":2819,
			"type":"VEC2"
		},
		{
			"bufferView":9,
			"componentType":5123,
			"count":7932,
			"type":"SCALAR"
		},
		{
			"bufferView":10,
			"componentType":5126,
			"count":4,
			"max":[
				1.7059136629104614,
				0,
				2.7447738647460938
			],
			"min":[
				-1.7059136629104614,
				0,
				-2.7447738647460938
			],
			"type":"VEC3"
		},
		{
			"bufferView":11,
			"componentType":5126,
			"count":4,
			"type":"VEC3"
		},
		{
			"bufferView":12,
			"componentType":5126,
			"count":4,
			"type":"VEC2"
		},
		{
			"bufferView":13,
			"componentType":5121,
			"count":4,
			"normalized":true,
			"type":"VEC4"
		},
		{
			"bufferView":14,
			"componentType":5126,
			"count":4,
			"type":"VEC3"
		},
		{
			"bufferView":15,
			"componentType":5123,
			"count":6,
			"type":"SCALAR"
		},
		{
			"bufferView":16,
			"componentType":5126,
			"count":9,
			"max":[
				2.5,
				0,
				1.17578125
			],
			"min":[
				-2.5,
				0,
				-1.17578125
			],
			"type":"VEC3"
		},
		{
			"bufferView":17,
			"componentType":5126,
			"count":9,
			"type":"VEC3"
		},
		{
			"bufferView":18,
			"componentType":5126,
			"count":9,
			"type":"VEC2"
		},
		{
			"bufferView":19,
			"componentType":5123,
			"count":24,
			"type":"SCALAR"
		},
		{
			"bufferView":20,
			"componentType":5126,
			"count":260,
			"max":[
				1,
				4.156467437744141,
				2.736102819442749
			],
			"min":[
				-1,
				-1,
				-2.736102819442749
			],
			"type":"VEC3"
		},
		{
			"bufferView":21,
			"componentType":5126,
			"count":260,
			"type":"VEC3"
		},
		{
			"bufferView":22,
			"componentType":5126,
			"count":260,
			"type":"VEC2"
		},
		{
			"bufferView":23,
			"componentType":5126,
			"count":260,
			"type":"VEC2"
		},
		{
			"bufferView":24,
			"componentType":5123,
			"count":642,
			"type":"SCALAR"
		},
		{
			"bufferView":25,
			"componentType":5126,
			"count":2698,
			"max":[
				10.785000801086426,
				-1.9976592063903809,
				9.701026916503906
			],
			"min":[
				-4.661999225616455,
				-2.030144453048706,
				-7.443480014801025
			],
			"type":"VEC3"
		},
		{
			"bufferView":26,
			"componentType":5126,
			"count":2698,
			"type":"VEC3"
		},
		{
			"bufferView":27,
			"componentType":5126,
			"count":2698,
			"type":"VEC2"
		},
		{
			"bufferView":28,
			"componentType":5126,
			"count":2698,
			"type":"VEC2"
		},
		{
			"bufferView":29,
			"componentType":5123,
			"count":11232,
			"type":"SCALAR"
		}
	],
	"bufferViews":[
		{
			"buffer":0,
			"byteLength":39696,
			"byteOffset":0,
			"target":34962
		},
		{
			"buffer":0,
			"byteLength":39696,
			"byteOffset":39696,
			"target":34962
		},
		{
			"buffer":0,
			"byteLength":26464,
			"byteOffset":79392,
			"target":34962
		},
		{
			"buffer":0,
			"byteLength":26464,
			"byteOffset":105856,
			"target":34962
		},
		{
			"buffer":0,
			"byteLength":22068,
			"byteOffset":132320,
			"target":34963
		},
		{
			"buffer":0,
			"byteLength":33828,
			"byteOffset":154388,
			"target":34962
		},
		{
			"buffer":0,
			"byteLength":33828,
			"byteOffset":188216,
			"target":34962
		},
		{
			"buffer":0,
			"byteLength":22552,
			"byteOffset":222044,
			"target":34962
		},
		{
			"buffer":0,
			"byteLength":22552,
			"byteOffset":244596,
			"target":34962
		},
		{
			"buffer":0,
			"byteLength":15864,
			"byteOffset":267148,
			"target":34963
		},
		{
			"buffer":0,
			"byteLength":48,
			"byteOffset":283012,
			"target":34962
		},
		{
			"buffer":0,
			"byteLength":48,
			"byteOffset":283060,
			"target":34962
		},
		{
			"buffer":0,
			"byteLength":32,
			"byteOffset":283108,
			"target":34962
		},
		{
			"buffer":0,
			"byteLength":16,
			"byteOffset":283140,
			"target":34962
		},
		{
			"buffer":0,
			"byteLength":48,
			"byteOffset":283156,
			"target":34962
		},
		{
			"buffer":0,
			"byteLength":12,
			"byteOffset":283204,
			"target":34963
		},
		{
			"buffer":0,
			"byteLength":108,
			"byteOffset":283216,
			"target":34962
		},
		{
			"buffer":0,
			"byteLength":108,
			"byteOffset":283324,
			"target":34962
		},
		{
			"buffer":0,
			"byteLength":72,
			"byteOffset":283432,
			"target":34962
		},
		{
			"buffer":0,
			"byteLength":48,
			"byteOffset":283504,
			"target":34963
		},
		{
			"buffer":0,
			"byteLength":3120,
			"byteOffset":283552,
			"target":34962
		},
		{
			"buffer":0,
			"byteLength":3120,
			"byteOffset":286672,
			"target":34962
		},
		{
			"buffer":0,
			"byteLength":2080,
			"byteOffset":289792,
			"target":34962
		},
		{
			"buffer":0,
			"byteLength":2080,
			"byteOffset":291872,
			"target":34962
		},
		{
			"buffer":0,
			"byteLength":1284,
			"byteOffset":293952,
			"target":34963
		},
		{
			"buffer":0,
			"byteLength":32376,
			"byteOffset":295236,
			"target":34962
		},
		{
			"buffer":0,
			"byteLength":32376,
			"byteOffset":327612,
			"target":34962
		},
		{
			"buffer":0,
			"byteLength":21584,
			"byteOffset":359988,
			"target":34962
		},
		{
			"buffer":0,
			"byteLength":21584,
			"byteOffset":381572,
			"target":34962
		},
		{
			"buffer":0,
			"byteLength":22464,
			"byteOffset":403156,
			"target":34963
		}
	],
	"samplers":[
		{
			"magFilter":9729,
			"minFilter":9987
		}
	],
	"buffers":[
		{
			"byteLength":425620,
			"uri":"model.bin"
		}
	]
}
